<svg width="14" height="14" viewBox="0 0 14 14" fill="none" xmlns="http://www.w3.org/2000/svg">
<path d="M12.8335 6.16667H7.83349V1.16667C7.83349 0.945655 7.7457 0.733694 7.58942 0.577414C7.43314 0.421133 7.22118 0.333336 7.00016 0.333336C6.77915 0.333336 6.56719 0.421133 6.41091 0.577414C6.25463 0.733694 6.16683 0.945655 6.16683 1.16667V6.16667H1.16683C0.945816 6.16667 0.733854 6.25447 0.577574 6.41075C0.421294 6.56703 0.333496 6.77899 0.333496 7C0.333496 7.22102 0.421294 7.43298 0.577574 7.58926C0.733854 7.74554 0.945816 7.83334 1.16683 7.83334H6.16683V12.8333C6.16683 13.0543 6.25463 13.2663 6.41091 13.4226C6.56719 13.5789 6.77915 13.6667 7.00016 13.6667C7.22118 13.6667 7.43314 13.5789 7.58942 13.4226C7.7457 13.2663 7.83349 13.0543 7.83349 12.8333V7.83334H12.8335C13.0545 7.83334 13.2665 7.74554 13.4227 7.58926C13.579 7.43298 13.6668 7.22102 13.6668 7C13.6668 6.77899 13.579 6.56703 13.4227 6.41075C13.2665 6.25447 13.0545 6.16667 12.8335 6.16667Z" fill="white"/>
</svg>
